<svg xmlns="http://www.w3.org/2000/svg" width="1600" height="900" viewBox="0 0 1600 900"><rect width="1600" height="900" fill="white"/><text x="800" y="80" text-anchor="middle" font-family="Arial" font-size="64" font-weight="700" fill="#08245a">System Architecture</text><text x="800" y="125" text-anchor="middle" font-family="Arial" font-size="26" fill="#51617d">From DayZ telemetry to human review.</text><g font-family="Arial" text-anchor="middle"><rect x="45" y="190" width="210" height="480" rx="24" fill="#fff" stroke="#dce6f6" stroke-width="3"/><circle cx="150" cy="235" r="28" fill="#1769e8"/><text x="150" y="245" font-size="28" font-weight="700" fill="white">1</text><text x="150" y="310" font-size="30" font-weight="700" fill="#08245a">DayZ Server</text><rect x="95" y="360" width="110" height="36" rx="8" fill="#526985" stroke="#08245a" stroke-width="4"/><rect x="95" y="405" width="110" height="36" rx="8" fill="#526985" stroke="#08245a" stroke-width="4"/><rect x="95" y="450" width="110" height="36" rx="8" fill="#526985" stroke="#08245a" stroke-width="4"/><text x="150" y="560" font-size="22" fill="#172744">Positions, shots</text><text x="150" y="590" font-size="22" fill="#172744">and actions</text><path d="M260 420h28" stroke="#1769e8" stroke-width="8"/><path d="M278 402l32 18-32 18z" fill="#1769e8"/><rect x="305" y="190" width="210" height="480" rx="24" fill="#fff" stroke="#dce6f6" stroke-width="3"/><circle cx="410" cy="235" r="28" fill="#1769e8"/><text x="410" y="245" font-size="28" font-weight="700" fill="white">2</text><text x="410" y="310" font-size="30" font-weight="700" fill="#08245a">Collector Mod</text><rect x="350" y="350" width="120" height="120" rx="18" fill="#526985" stroke="#08245a" stroke-width="6"/><polyline points="365,420 390,390 410,440 435,370 460,420" fill="none" stroke="#48b9ae" stroke-width="8"/><text x="410" y="560" font-size="22" fill="#172744">Captures gameplay</text><text x="410" y="590" font-size="22" fill="#172744">events</text><path d="M520 420h28" stroke="#1769e8" stroke-width="8"/><path d="M538 402l32 18-32 18z" fill="#1769e8"/><rect x="565" y="190" width="210" height="480" rx="24" fill="#fff" stroke="#dce6f6" stroke-width="3"/><circle cx="670" cy="235" r="28" fill="#1769e8"/><text x="670" y="245" font-size="28" font-weight="700" fill="white">3</text><text x="670" y="310" font-size="30" font-weight="700" fill="#08245a">Ingest</text><path d="M610 430q10-70 60-60 50-10 60 60-15 40-60 35-45 5-60-35z" fill="#c9f2e9" stroke="#08245a" stroke-width="5"/><text x="670" y="500" font-size="34" font-weight="700" fill="#08245a">API</text><text x="670" y="560" font-size="22" fill="#172744">Receives</text><text x="670" y="590" font-size="22" fill="#172744">telemetry</text><path d="M780 420h28" stroke="#1769e8" stroke-width="8"/><path d="M798 402l32 18-32 18z" fill="#1769e8"/><rect x="825" y="190" width="210" height="480" rx="24" fill="#fff" stroke="#dce6f6" stroke-width="3"/><circle cx="930" cy="235" r="28" fill="#1769e8"/><text x="930" y="245" font-size="28" font-weight="700" fill="white">4</text><text x="930" y="310" font-size="30" font-weight="700" fill="#08245a">Storage</text><ellipse cx="930" cy="365" rx="62" ry="25" fill="#526985" stroke="#08245a" stroke-width="5"/><rect x="868" y="365" width="124" height="95" fill="#526985" stroke="#08245a" stroke-width="5"/><ellipse cx="930" cy="460" rx="62" ry="25" fill="#526985" stroke="#08245a" stroke-width="5"/><text x="930" y="560" font-size="22" fill="#172744">Raw files +</text><text x="930" y="590" font-size="22" fill="#172744">PostgreSQL</text><path d="M1040 420h28" stroke="#1769e8" stroke-width="8"/><path d="M1058 402l32 18-32 18z" fill="#1769e8"/><rect x="1085" y="190" width="210" height="480" rx="24" fill="#fff" stroke="#dce6f6" stroke-width="3"/><circle cx="1190" cy="235" r="28" fill="#1769e8"/><text x="1190" y="245" font-size="28" font-weight="700" fill="white">5</text><text x="1190" y="310" font-size="30" font-weight="700" fill="#08245a">Analysis</text><circle cx="1170" cy="405" r="62" fill="#dbf7ef" stroke="#08245a" stroke-width="6"/><circle cx="1220" cy="445" r="40" fill="white" stroke="#08245a" stroke-width="7"/><line x1="1248" y1="473" x2="1278" y2="503" stroke="#08245a" stroke-width="12"/><text x="1190" y="560" font-size="22" fill="#172744">Builds review</text><text x="1190" y="590" font-size="22" fill="#172744">evidence</text><path d="M1300 420h28" stroke="#1769e8" stroke-width="8"/><path d="M1318 402l32 18-32 18z" fill="#1769e8"/><rect x="1345" y="190" width="210" height="480" rx="24" fill="#fff" stroke="#dce6f6" stroke-width="3"/><circle cx="1450" cy="235" r="28" fill="#1769e8"/><text x="1450" y="245" font-size="28" font-weight="700" fill="white">6</text><text x="1450" y="310" font-size="30" font-weight="700" fill="#08245a">Review UI</text><circle cx="1415" cy="390" r="34" fill="#526985"/><path d="M1365 490q50-85 100 0z" fill="#526985" stroke="#08245a" stroke-width="5"/><rect x="1450" y="365" width="75" height="90" rx="8" fill="white" stroke="#08245a" stroke-width="7"/><text x="1450" y="560" font-size="22" fill="#172744">Admins inspect</text><text x="1450" y="590" font-size="22" fill="#172744">cases</text><rect x="140" y="735" width="370" height="90" rx="20" fill="#eef9f7" stroke="#dce6f6" stroke-width="2"/><text x="325" y="792" font-size="30" font-weight="700" fill="#08245a">No raw audio</text><rect x="615" y="735" width="370" height="90" rx="20" fill="#eef9f7" stroke="#dce6f6" stroke-width="2"/><text x="800" y="792" font-size="30" font-weight="700" fill="#08245a">Direct player IDs</text><rect x="1090" y="735" width="370" height="90" rx="20" fill="#eef9f7" stroke="#dce6f6" stroke-width="2"/><text x="1275" y="792" font-size="30" font-weight="700" fill="#08245a">Human review</text></g></svg>